<?xml version="1.0" standalone="no"?>
<!DOCTYPE svg PUBLIC "-//W3C//DTD SVG 20010904//EN"
 "http://www.w3.org/TR/2001/REC-SVG-20010904/DTD/svg10.dtd">
<svg version="1.0" xmlns="http://www.w3.org/2000/svg"
 width="894.000000pt" height="598.000000pt" viewBox="0 0 894.000000 598.000000"
 preserveAspectRatio="xMidYMid meet">

<g transform="translate(0.000000,598.000000) scale(0.100000,-0.100000)"
fill="#000000" stroke="none">
<path d="M2805 5209 c-360 -30 -715 -151 -1011 -344 -72 -47 -85 -59 -71 -67
9 -5 17 -16 17 -23 0 -8 4 -15 8 -15 5 0 25 -16 44 -36 43 -42 57 -83 34 -100
-21 -15 -20 -25 2 -18 9 2 7 -1 -6 -8 -16 -8 -22 -18 -18 -31 3 -14 0 -17 -11
-13 -57 22 -62 20 -129 -48 -44 -45 -73 -66 -89 -66 -13 0 -26 -4 -29 -9 -3
-4 -20 -11 -38 -15 -18 -3 -49 -23 -70 -43 -24 -24 -42 -34 -53 -29 -10 3 -29
-2 -45 -14 -16 -11 -35 -18 -43 -14 -8 3 -22 -2 -31 -11 -9 -10 -25 -15 -36
-12 -15 4 -28 -6 -50 -36 -16 -22 -29 -42 -27 -43 2 -2 35 3 212 30 36 5 35 4
-10 -9 -27 -8 -86 -20 -130 -27 -48 -7 -85 -18 -92 -27 -7 -9 -32 -54 -57
-101 -181 -350 -275 -779 -246 -1126 9 -112 46 -353 55 -362 5 -6 61 81 92
143 17 33 47 106 68 163 21 57 39 101 42 99 2 -2 -13 -58 -33 -123 -39 -129
-87 -231 -134 -283 -34 -36 -36 -49 -16 -76 13 -18 14 -18 20 2 4 11 14 27 24
36 22 20 68 27 64 10 -3 -16 10 -17 24 -3 7 7 16 -20 27 -87 8 -54 25 -119 36
-143 23 -52 58 -96 68 -86 4 4 2 11 -5 15 -7 4 -17 23 -22 42 -12 42 -13 156
-1 163 15 9 34 -22 28 -46 -3 -13 -10 -40 -15 -60 -6 -21 -7 -38 -3 -38 3 0
27 29 54 64 l47 63 0 139 c0 76 7 184 15 239 15 111 86 412 134 574 17 57 29
106 27 108 -4 4 -55 -122 -70 -174 -4 -13 -12 -22 -18 -20 -15 3 -59 -134 -98
-303 -18 -74 -47 -180 -66 -235 -40 -117 -60 -203 -70 -300 -11 -106 -23 -52
-28 123 -5 167 5 277 38 442 26 129 40 164 92 233 20 26 34 50 32 53 -3 2 -26
-23 -52 -56 -52 -66 -134 -131 -199 -160 -67 -29 -96 -33 -46 -6 138 74 233
215 399 591 104 236 187 399 245 480 121 168 11 68 -198 -179 -218 -260 -351
-513 -318 -607 11 -33 11 -33 -6 -16 -13 13 -18 33 -17 77 1 47 9 75 41 143
47 98 139 239 227 347 93 115 307 331 325 328 8 -2 16 3 16 9 0 7 14 23 31 35
18 13 63 50 100 83 239 209 588 345 691 269 16 -12 29 -33 31 -47 5 -40 17
-33 40 22 37 90 143 144 314 162 114 11 205 2 288 -31 71 -28 185 -87 203
-104 13 -14 27 -8 126 55 61 39 115 67 121 64 5 -3 -15 -19 -45 -35 -30 -16
-83 -49 -117 -73 -91 -63 -146 -95 -129 -74 22 28 -2 19 -37 -12 -42 -39 -40
-54 6 -74 35 -15 244 -68 325 -83 20 -3 53 -19 73 -35 43 -34 54 -37 28 -8
l-19 22 53 -7 c60 -8 82 3 82 38 0 22 -113 228 -172 314 -45 66 -60 62 -261
-81 -13 -9 -159 72 -151 85 3 4 21 10 42 14 20 4 64 17 97 30 130 48 135 54
105 115 -24 45 -19 48 22 14 16 -14 38 -25 49 -25 12 0 26 -14 38 -39 11 -21
36 -49 55 -60 28 -18 35 -29 38 -58 2 -20 10 -39 18 -43 8 -4 30 -14 49 -24
36 -18 54 -14 29 7 -8 6 -22 33 -32 58 -17 46 -45 69 -86 69 -19 0 -52 43 -78
103 -7 16 -19 27 -31 27 -70 0 -69 45 5 137 l34 42 -72 15 c-157 34 -239 47
-398 61 -91 8 -176 14 -190 14 -14 -1 -70 -6 -125 -10z m561 -126 c15 -27 47
-82 70 -124 24 -42 44 -79 44 -83 0 -11 -101 -53 -183 -77 -121 -35 -117 -35
-117 -3 0 46 74 263 106 312 24 36 50 28 80 -25z m-1298 -110 c-10 -2 -26 -2
-35 0 -10 3 -2 5 17 5 19 0 27 -2 18 -5z m1142 4 c0 -2 -11 -37 -25 -77 -14
-40 -25 -82 -25 -93 0 -15 -5 -18 -22 -13 -95 28 -169 37 -243 31 -99 -8 -194
-29 -242 -54 l-37 -18 -24 29 c-14 16 -45 39 -70 52 l-46 23 54 16 c161 45
333 72 389 61 16 -3 39 -1 51 6 35 19 240 50 240 37z m-863 -108 c87 -12 188
-51 226 -87 32 -30 34 -43 9 -65 -17 -16 -20 -15 -43 9 -72 77 -289 131 -544
135 -98 2 -92 5 30 18 87 10 208 6 322 -10z m55 -83 c26 -8 59 -21 73 -29 26
-13 23 -14 -72 -34 -114 -24 -246 -69 -347 -120 l-71 -35 30 32 c64 68 274
199 320 200 11 0 41 -7 67 -14z m1293 -148 c38 -62 77 -129 88 -148 l21 -35
-22 19 c-30 26 -173 276 -158 276 2 0 34 -51 71 -112z m-2228 -374 c-3 -3 -12
-4 -19 -1 -8 3 -5 6 6 6 11 1 17 -2 13 -5z"/>
<path d="M3642 5018 c-40 -12 -70 -23 -68 -26 3 -2 35 1 71 8 71 13 160 9 177
-8 8 -8 1 -19 -23 -39 -18 -15 -40 -28 -48 -28 -9 0 -18 -14 -22 -34 -7 -33
-3 -40 56 -105 54 -61 61 -74 54 -94 -5 -13 -17 -26 -27 -29 -18 -4 -18 -7 -4
-49 8 -24 18 -44 23 -44 5 0 9 -11 9 -24 0 -61 15 -59 25 4 7 47 14 64 24 62
8 -2 18 2 22 9 5 10 13 8 33 -4 29 -19 56 -22 56 -6 0 15 69 -38 114 -88 20
-23 41 -56 46 -75 13 -42 13 -88 0 -88 -5 0 16 -37 46 -82 49 -73 55 -87 51
-121 -7 -48 -12 -54 -34 -36 -17 13 -17 13 0 -13 9 -15 35 -61 57 -103 l41
-75 -27 -52 c-26 -50 -28 -52 -35 -28 -5 14 -6 -4 -3 -44 6 -74 12 -96 23 -96
4 0 5 19 1 43 -5 33 0 54 22 102 15 33 28 69 28 79 0 11 -13 43 -30 73 -30 53
-36 99 -21 153 9 30 -13 79 -63 139 -32 38 -36 50 -36 97 0 83 -46 154 -138
214 -18 11 -23 23 -20 43 l3 27 28 -25 c71 -66 381 -250 665 -394 53 -27 51
-22 -40 98 l-63 84 -131 32 c-112 27 -291 92 -280 102 1 2 19 -4 39 -12 49
-20 78 -20 70 2 -6 14 2 15 73 9 43 -4 83 -11 89 -17 5 -6 4 -9 -5 -9 -7 0
-10 -3 -6 -7 3 -4 -3 -12 -15 -19 -20 -10 -17 -12 32 -23 99 -22 91 -23 72 11
-30 49 -54 64 -153 98 -115 39 -253 105 -201 96 18 -3 45 -6 60 -7 22 0 23 -2
7 -8 -19 -7 -11 -9 127 -36 9 -2 15 1 11 6 -3 5 -12 9 -20 9 -8 0 -13 4 -10 9
11 18 -22 29 -163 55 -79 15 -157 34 -172 42 -28 14 -29 17 -30 97 -2 116 -16
52 -18 -79 -1 -110 -8 -164 -22 -164 -5 0 -8 3 -8 8 1 4 1 18 0 32 -1 20 -3
22 -11 10 -7 -12 -13 -13 -27 -3 -10 6 -17 16 -15 23 1 6 -2 9 -7 6 -5 -3 -21
11 -37 31 -15 20 -22 33 -16 29 8 -5 12 1 12 17 0 24 59 121 87 144 8 6 13 22
11 35 -6 42 -38 32 -126 -37 -46 -37 -86 -65 -88 -62 -6 5 37 50 100 105 27
23 42 42 34 42 -8 0 -20 -6 -27 -12 -10 -11 -14 -10 -22 4 -9 17 -68 39 -99
37 -8 0 -48 -10 -88 -21z m398 -308 c0 -5 -2 -10 -4 -10 -3 0 -8 5 -11 10 -3
6 -1 10 4 10 6 0 11 -4 11 -10z"/>
<path d="M2828 4577 c-14 -10 -10 -15 35 -37 257 -131 372 -224 499 -405 80
-114 266 -441 256 -450 -2 -2 -30 3 -63 10 -73 17 -120 20 -161 11 -30 -7 -31
-6 -104 115 -106 176 -245 362 -342 457 -163 161 -352 282 -418 267 -40 -9
-30 -19 34 -34 114 -28 270 -127 351 -222 25 -31 86 -143 106 -197 l10 -27
-25 26 c-13 15 -64 58 -113 97 -48 39 -97 84 -107 99 -11 15 -40 46 -65 68
l-46 40 26 -35 c43 -59 131 -224 261 -485 114 -228 123 -252 109 -265 -9 -8
-12 -12 -7 -7 21 16 35 3 102 -95 38 -57 95 -133 127 -170 53 -63 55 -66 23
-47 -36 21 -128 112 -167 164 -53 71 -43 43 18 -53 l34 -54 -43 24 c-59 32
-207 180 -256 256 -59 91 -143 311 -207 542 -25 90 -74 214 -81 207 -2 -2 9
-39 25 -83 16 -43 41 -137 56 -209 30 -147 55 -229 127 -430 57 -157 79 -205
104 -226 16 -13 16 -12 -1 20 -17 34 -95 238 -95 250 0 3 19 -25 42 -64 25
-43 81 -109 142 -170 82 -81 116 -108 181 -139 105 -52 113 -56 160 -82 60
-33 145 -57 145 -40 0 8 -12 17 -27 20 -72 19 -190 135 -290 287 -35 53 -63
101 -63 106 0 6 17 15 39 21 35 11 44 9 114 -23 42 -19 80 -35 85 -35 6 0 24
-16 41 -35 17 -20 31 -32 31 -26 0 20 -41 141 -50 146 -6 3 -10 11 -10 17 0
12 152 4 220 -10 45 -10 61 -39 100 -182 38 -139 38 -227 -1 -300 l-23 -45 -8
55 c-5 30 -10 80 -12 110 -2 30 -1 38 1 18 2 -21 8 -38 14 -38 13 0 11 18 -6
97 -14 60 -74 218 -80 211 -2 -2 5 -34 15 -73 11 -43 18 -113 19 -182 3 -189
-20 -241 -50 -115 -17 69 -98 286 -105 280 -5 -5 64 -235 80 -267 7 -14 16
-39 20 -55 6 -22 4 -27 -7 -23 -8 3 -20 0 -26 -6 -8 -8 -11 -8 -11 0 0 8 -25
11 -77 10 -43 -1 -91 2 -108 6 -29 8 -29 8 5 -12 19 -11 28 -20 20 -21 -22 0
-124 -49 -117 -56 3 -3 16 0 29 7 21 11 22 11 9 -4 -7 -10 -10 -17 -5 -17 8
-1 -65 -29 -74 -30 -2 0 -1 4 2 9 3 5 -2 8 -11 7 -9 0 -22 8 -27 20 -6 11 -16
19 -23 17 -6 -2 -48 52 -94 121 -46 69 -85 122 -87 118 -4 -13 76 -154 119
-211 38 -51 39 -54 23 -72 -9 -10 -27 -19 -39 -19 -33 0 -112 55 -142 99 -16
22 -33 40 -39 41 -14 0 -64 53 -64 68 0 7 -5 12 -11 12 -7 0 -8 -7 -4 -17 3
-10 12 -45 19 -78 15 -69 59 -161 110 -228 20 -26 33 -47 30 -47 -16 0 -125
57 -165 86 -26 19 -50 34 -53 34 -18 0 -104 105 -146 178 -44 75 -60 111 -103
226 l-14 40 -16 -30 -15 -29 -11 28 c-6 16 -11 61 -12 100 -1 40 -5 83 -9 97
-12 37 -12 -229 0 -335 15 -126 65 -316 108 -406 37 -76 37 -77 11 -58 -60 42
-143 144 -195 239 -10 19 -24 39 -31 45 -18 15 -91 217 -107 298 -24 120 -36
258 -36 428 0 89 -2 160 -4 158 -3 -3 -12 -74 -21 -159 -17 -151 -16 -290 2
-511 l6 -76 -59 -27 c-33 -15 -71 -39 -86 -53 l-27 -25 -11 43 c-7 24 -21 87
-31 139 -17 88 -18 90 -13 30 7 -88 32 -236 43 -258 5 -9 19 -46 32 -82 32
-93 106 -245 146 -297 l35 -45 -33 -34 c-18 -19 -30 -34 -28 -34 3 0 -12 -19
-35 -42 -22 -24 -44 -42 -48 -40 -20 6 -5 -10 17 -18 22 -8 24 -13 15 -30 -6
-11 -8 -26 -4 -33 4 -6 4 -9 -1 -5 -4 4 -14 3 -21 -2 -9 -8 -14 1 -23 37 -28
126 -40 219 -37 290 3 57 2 64 -3 28 -6 -46 -7 -42 -14 50 -6 88 -14 141 -47
300 -5 22 -14 100 -21 173 -6 72 -15 132 -19 132 -16 0 -19 -51 -19 -250 0
-198 -1 -207 -26 -268 -15 -35 -24 -71 -21 -79 4 -9 1 -21 -4 -29 -13 -15 53
-285 95 -388 20 -51 21 -57 5 -36 -76 100 -185 344 -211 475 -9 44 -39 263
-39 290 -1 20 -19 -22 -29 -66 -6 -28 -7 -90 -1 -174 5 -71 12 -170 15 -220 7
-106 46 -308 81 -419 13 -43 22 -81 20 -83 -8 -8 -65 125 -92 213 -31 102 -50
200 -70 362 -18 149 -23 172 -37 172 -13 0 -4 -141 19 -295 21 -145 76 -371
119 -490 19 -52 32 -95 29 -95 -15 0 -99 206 -125 307 -53 203 -63 300 -62
593 0 146 3 288 5 315 4 44 3 51 -13 51 -39 0 -64 -205 -63 -501 2 -333 40
-570 128 -794 41 -104 57 -153 53 -157 -2 -2 -14 10 -26 27 -20 27 -27 44 -30
72 -1 4 -6 6 -12 5 -7 -2 -21 12 -31 30 -11 17 -17 32 -14 32 3 0 13 -15 22
-32 37 -71 22 -4 -25 115 -28 69 -66 179 -85 244 l-34 118 3 -145 c1 -80 6
-154 10 -165 5 -11 5 -17 2 -14 -13 11 -55 165 -71 257 -8 50 -21 163 -28 249
-12 147 -13 153 -19 93 -11 -113 -9 -272 5 -373 16 -108 59 -213 139 -337 l42
-64 0 -171 0 -170 45 -88 c39 -80 53 -96 125 -154 44 -36 87 -67 95 -71 8 -3
17 -9 20 -13 10 -15 219 -134 306 -175 102 -47 256 -103 355 -129 63 -16 70
-16 134 0 68 17 88 17 290 -5 91 -9 188 -6 225 8 14 5 75 48 135 96 61 47 115
84 120 82 18 -6 7 -105 -17 -147 -29 -51 -18 -59 17 -13 19 25 30 53 33 85 2
27 8 49 13 49 5 0 6 -6 3 -14 -3 -8 8 -29 25 -48 30 -32 32 -32 46 -14 8 11
15 14 15 8 0 -25 31 -24 66 3 24 18 33 32 29 44 -10 31 4 47 68 76 34 16 64
31 67 34 3 4 32 24 64 46 32 22 90 71 128 108 37 37 73 65 78 62 25 -15 109
240 145 435 44 249 48 390 12 510 -13 44 -14 43 -20 -90 -7 -152 -40 -314 -82
-403 -24 -51 -90 -125 -102 -113 -3 2 12 28 31 58 45 65 80 172 107 326 11 64
23 126 26 137 4 16 3 18 -8 8 -19 -18 -39 -16 -40 5 -1 9 -5 -2 -9 -25 -13
-62 -86 -238 -132 -318 -84 -144 -374 -450 -513 -541 -34 -23 -99 -17 -375 35
-437 81 -481 106 -673 381 -48 69 -112 155 -143 193 -57 69 -61 82 -17 47 45
-35 38 -12 -10 34 -25 25 -55 63 -66 85 -22 41 -28 91 -12 91 11 0 21 -25 21
-50 0 -33 20 -33 26 0 l7 31 26 -24 c75 -70 127 -75 64 -6 -22 24 -48 60 -56
80 -13 33 -13 43 1 104 13 55 25 76 62 115 49 52 126 86 168 75 25 -6 25 -6
-8 -23 -41 -21 -68 -56 -76 -101 l-7 -33 25 16 c20 13 29 14 51 3 15 -6 27
-18 27 -26 0 -20 -31 -40 -63 -41 -32 0 -32 -10 5 -88 33 -71 138 -163 138
-121 0 6 6 9 13 6 6 -2 11 -10 9 -17 -4 -19 17 -30 58 -30 35 0 60 14 60 34 0
6 -5 5 -12 -2 -28 -28 -98 -6 -98 31 0 18 6 22 33 24 30 2 59 25 70 56 4 9 7
9 18 0 7 -7 17 -13 21 -13 27 0 -18 147 -68 222 -40 59 -41 62 -13 48 11 -7
24 -9 27 -5 9 8 -56 64 -95 81 -38 16 -44 28 -10 20 12 -3 6 1 -13 10 -25 12
-57 15 -122 12 l-88 -3 -24 60 c-33 83 -53 172 -66 297 -12 111 -8 144 19 165
15 11 14 12 -1 13 -14 0 -18 9 -17 43 0 23 3 35 6 27 3 -8 13 -33 23 -55 10
-22 25 -65 35 -95 26 -80 110 -255 134 -279 23 -23 47 -29 35 -8 -4 6 13 -7
38 -29 49 -45 76 -62 119 -74 l28 -8 -30 41 c-37 51 -62 107 -89 198 -18 58
-49 220 -50 253 0 5 14 -12 31 -38 18 -26 55 -73 82 -104 28 -31 45 -51 37
-44 -19 17 -27 15 -33 -7 -4 -15 9 -29 52 -59 31 -22 71 -47 90 -56 37 -20 36
-14 -11 45 -49 64 -30 63 29 -1 31 -34 68 -67 83 -75 47 -24 144 -53 180 -53
l35 0 -45 46 c-39 40 -117 152 -106 152 2 0 25 -12 51 -27 31 -17 65 -27 99
-28 28 -2 54 -3 58 -4 4 0 3 -13 -2 -27 -16 -41 -10 -52 8 -15 14 29 22 34 53
35 l37 1 -19 -27 c-21 -28 -25 -43 -10 -33 6 3 3 -15 -5 -39 -26 -77 -13 -85
31 -20 45 66 123 154 137 154 5 0 28 9 50 20 32 15 63 20 132 21 107 1 130 -3
218 -43 66 -30 66 -30 73 -78 4 -26 4 -78 0 -116 l-6 -69 25 28 c14 15 33 53
43 85 l17 57 7 -40 c4 -22 8 -57 8 -78 1 -21 5 -46 11 -56 12 -24 -4 -320 -24
-421 -26 -138 -75 -231 -140 -271 -41 -25 -16 -25 33 1 57 28 106 92 161 205
53 110 73 182 91 325 7 52 15 98 19 103 3 4 12 -28 18 -70 12 -75 6 -173 -13
-215 -14 -33 11 -18 38 22 26 40 26 42 21 173 -7 140 -57 410 -125 660 -18 67
-21 32 -5 -50 46 -224 59 -512 29 -669 -20 -110 -68 -247 -114 -326 -44 -75
-68 -99 -45 -44 9 20 22 51 30 69 45 102 60 331 37 559 -6 59 -8 114 -5 122 3
8 -1 25 -10 38 -22 31 -20 48 7 48 21 0 21 1 -5 23 -20 16 -31 40 -43 92 -30
136 -89 314 -157 475 -88 209 -434 754 -479 755 -8 1 -13 7 -11 14 4 18 -37
61 -123 126 -99 76 -190 104 -237 72z m73 -444 c13 -16 12 -17 -3 -4 -17 13
-22 21 -14 21 2 0 10 -8 17 -17z m151 -161 c42 -45 68 -82 76 -111 8 -24 12
-45 10 -47 -4 -4 -135 146 -160 184 -16 25 -16 42 1 42 5 0 37 -31 73 -68z
m57 -263 c28 -18 51 -35 51 -39 0 -4 -12 -12 -27 -19 -29 -13 -29 -13 -64 52
-10 20 -17 37 -15 37 3 0 27 -14 55 -31z m528 -316 c-3 -10 -5 -4 -5 12 0 17
2 24 5 18 2 -7 2 -21 0 -30z m161 -171 c11 -48 23 -102 26 -121 6 -33 5 -34
-12 -18 -10 10 -42 25 -70 35 l-51 17 21 45 c14 31 22 73 26 134 l5 89 18 -47
c10 -26 27 -87 37 -134z m-153 -70 c-12 -13 -20 13 -16 55 l5 48 7 -50 c5 -27
6 -51 4 -53z m-1494 11 c2 -145 8 -208 17 -211 7 -2 9 -17 6 -35 -4 -20 -2
-27 3 -19 6 8 13 -5 23 -40 7 -29 23 -77 36 -107 l24 -54 -45 5 c-25 3 -51 11
-59 17 -20 16 -141 263 -162 329 -17 54 -17 54 7 77 23 23 126 84 142 85 4 0
7 -21 8 -47z m1027 -138 c1 -1 -11 -2 -28 -3 -29 -1 -37 7 -24 21 5 5 37 -6
52 -18z m662 5 c0 -5 -2 -10 -4 -10 -3 0 -8 5 -11 10 -3 6 -1 10 4 10 6 0 11
-4 11 -10z m-1955 -274 c8 -54 13 -101 11 -103 -2 -2 -12 20 -22 49 -14 42
-19 49 -24 33 -7 -18 -9 -17 -20 10 -6 16 -17 33 -23 37 -9 6 -8 11 3 18 8 5
16 24 16 42 1 18 7 47 14 63 l13 30 8 -40 c5 -22 15 -85 24 -139z m320 -84
c-3 -3 -11 0 -18 7 -9 10 -8 11 6 5 10 -3 15 -9 12 -12z m-54 -129 c13 -16 12
-17 -3 -4 -10 7 -18 15 -18 17 0 8 8 3 21 -13z m-68 -23 c-5 -19 -23 -29 -23
-12 0 7 20 32 26 32 1 0 0 -9 -3 -20z m1990 -15 c4 -8 2 -17 -3 -20 -6 -4 -10
3 -10 14 0 25 6 27 13 6z m-1633 -110 c-7 -9 -15 -13 -17 -11 -7 7 7 26 19 26
6 0 6 -6 -2 -15z m-390 -22 c-1 -24 -2 -26 -11 -10 -5 9 -7 22 -4 27 10 17 15
11 15 -17z m550 -36 c0 -16 -47 -40 -55 -28 -7 12 15 29 53 40 1 1 2 -5 2 -12z
m-1193 -39 c-3 -7 -5 -2 -5 12 0 14 2 19 5 13 2 -7 2 -19 0 -25z m17 -53 c5
-22 4 -26 -4 -15 -5 8 -10 24 -10 34 0 26 6 18 14 -19z m1086 15 c0 -5 -4 -10
-10 -10 -5 0 -10 5 -10 10 0 6 5 10 10 10 6 0 10 -4 10 -10z m-469 -37 c13
-16 12 -17 -3 -4 -10 7 -18 15 -18 17 0 8 8 3 21 -13z m-591 -58 c0 -5 -5 -3
-10 5 -5 8 -10 20 -10 25 0 6 5 3 10 -5 5 -8 10 -19 10 -25z m641 18 c13 -16
12 -17 -3 -4 -10 7 -18 15 -18 17 0 8 8 3 21 -13z m-607 -89 c3 -8 2 -12 -4
-9 -6 3 -10 10 -10 16 0 14 7 11 14 -7z m641 -88 c19 -33 41 -51 99 -81 103
-55 136 -108 40 -66 -79 35 -141 89 -163 142 -12 26 -21 51 -21 54 0 14 21 -9
45 -49z m1785 -412 c14 -79 17 -71 -56 -147 -34 -36 -110 -103 -134 -118 -11
-8 -12 -11 -2 -16 16 -6 -3 -33 -24 -33 -8 0 -14 -4 -14 -10 0 -5 -7 -10 -15
-10 -8 0 -15 -4 -15 -9 0 -5 -10 -11 -22 -14 -13 -2 -32 -8 -43 -12 l-20 -8
20 16 c16 13 17 16 5 17 -9 0 -21 -5 -28 -12 -9 -9 -17 -7 -35 10 -30 28 -55
28 -61 0 -3 -13 -7 -32 -9 -43 -3 -13 -5 -9 -6 11 0 16 -8 39 -16 50 -14 18
-16 18 -45 -14 l-30 -32 0 29 c0 16 -15 58 -33 95 l-34 66 38 0 c32 0 47 9
110 68 41 37 112 101 158 142 91 81 214 217 259 285 l27 42 6 -141 c3 -78 12
-173 19 -212z m-150 -268 c0 -3 -4 -8 -10 -11 -5 -3 -10 -1 -10 4 0 6 5 11 10
11 6 0 10 -2 10 -4z m-330 -96 c0 -16 -4 -30 -9 -30 -5 0 -16 -3 -25 -6 -21
-8 -20 11 2 41 23 33 32 31 32 -5z m80 5 c11 -13 10 -14 -4 -9 -9 3 -16 10
-16 15 0 13 6 11 20 -6z m-72 -111 c-11 -23 -12 -23 -30 -7 -18 16 -18 18 -3
29 27 20 46 7 33 -22z"/>
<path d="M1830 2781 c0 -5 5 -13 10 -16 6 -3 10 -2 10 4 0 5 -4 13 -10 16 -5
3 -10 2 -10 -4z"/>
<path d="M3805 1810 c-37 -45 -66 -83 -63 -85 8 -8 138 133 138 149 0 9 -2 16
-4 16 -2 0 -34 -36 -71 -80z"/>
<path d="M3671 1303 c-19 -8 -53 -43 -42 -43 11 0 81 40 81 46 0 5 -22 4 -39
-3z"/>
<path d="M4135 4560 c5 -8 36 -49 70 -90 33 -41 81 -106 107 -145 83 -124 104
-139 253 -175 88 -22 142 -30 168 -26 25 4 48 1 68 -10 17 -8 33 -13 36 -10 3
3 -7 26 -22 52 -22 37 -37 50 -78 67 -169 68 -461 233 -576 325 -19 15 -31 20
-26 12z"/>
<path d="M4385 4530 c3 -5 14 -10 23 -10 15 0 15 2 2 10 -20 13 -33 13 -25 0z"/>
<path d="M2299 4456 c-80 -32 -110 -57 -167 -134 -65 -88 -113 -176 -157 -290
-52 -135 -39 -133 18 2 51 122 131 263 175 309 27 29 127 95 121 80 -2 -4 -21
-42 -41 -83 -37 -75 -78 -206 -78 -245 1 -11 17 31 36 93 41 136 82 220 126
261 39 37 39 37 -33 7z"/>
<path d="M4027 4395 c-4 -8 -3 -16 1 -19 10 -6 43 20 35 27 -11 12 -31 8 -36
-8z"/>
<path d="M3934 4385 c-4 -9 -3 -28 1 -43 3 -15 9 -45 12 -67 3 -22 12 -49 19
-60 8 -11 14 -27 14 -36 0 -9 7 -19 15 -23 12 -4 13 -2 5 13 -6 13 -7 37 0 72
6 28 10 71 10 94 0 39 -3 44 -31 54 -40 14 -39 14 -45 -4z"/>
<path d="M3760 4355 c0 -3 57 -62 127 -132 75 -75 109 -105 84 -73 -25 30 -78
90 -120 133 -68 69 -91 88 -91 72z"/>
<path d="M4107 4223 c-9 -17 -17 -65 -12 -73 6 -10 75 27 75 40 0 7 -44 40
-54 40 -3 0 -7 -3 -9 -7z"/>
<path d="M3883 4149 c47 -64 79 -114 141 -219 22 -39 37 -54 50 -52 23 4 46
-16 46 -40 0 -14 -5 -18 -15 -14 -22 8 -19 -4 20 -98 19 -46 52 -132 74 -192
21 -60 60 -158 86 -219 27 -60 75 -186 107 -280 l59 -170 -5 127 c-3 90 -9
136 -21 158 -9 18 -12 29 -6 26 6 -4 11 0 11 10 0 25 -56 185 -111 317 -28 64
-47 122 -44 127 11 17 -6 52 -21 46 -9 -3 -14 1 -14 12 0 36 -101 176 -283
394 -111 133 -143 162 -74 67z"/>
<path d="M4540 4126 c0 -2 7 -7 16 -10 8 -3 12 -2 9 4 -6 10 -25 14 -25 6z"/>
<path d="M4650 4089 c0 -6 6 -9 14 -6 7 3 19 0 25 -6 8 -8 11 -7 11 6 0 11 -8
17 -25 17 -14 0 -25 -5 -25 -11z"/>
<path d="M4025 4070 c10 -11 20 -20 23 -20 3 0 -3 9 -13 20 -10 11 -20 20 -23
20 -3 0 3 -9 13 -20z"/>
<path d="M2162 4045 c0 -16 2 -22 5 -12 2 9 2 23 0 30 -3 6 -5 -1 -5 -18z"/>
<path d="M4069 4013 c23 -35 41 -50 41 -35 0 4 -14 21 -32 38 l-31 29 22 -32z"/>
<path d="M4162 3998 c-7 -7 -12 -21 -12 -31 0 -15 3 -17 14 -8 7 6 21 9 30 5
19 -7 20 5 2 29 -16 20 -18 21 -34 5z"/>
<path d="M1522 3916 c-32 -44 -32 -44 -32 -173 0 -200 24 -201 35 -1 2 48 11
115 20 149 9 33 14 63 12 65 -2 2 -18 -16 -35 -40z"/>
<path d="M4677 3774 c72 -120 137 -216 115 -169 -19 39 -164 270 -179 285 -8
8 21 -44 64 -116z"/>
<path d="M1676 3501 c-4 -5 -2 -12 3 -15 5 -4 12 -2 15 3 4 5 2 12 -3 15 -5 4
-12 2 -15 -3z"/>
<path d="M1645 3480 c-4 -6 -11 -8 -16 -5 -5 4 -9 4 -9 1 0 -11 39 -26 55 -20
12 5 13 9 4 20 -14 17 -25 18 -34 4z"/>
<path d="M1753 3464 c-4 -10 1 -22 12 -30 23 -17 29 -12 21 21 -7 28 -24 33
-33 9z"/>
<path d="M3931 3334 c0 -11 3 -14 6 -6 3 7 2 16 -1 19 -3 4 -6 -2 -5 -13z"/>
<path d="M3671 3264 c0 -11 3 -14 6 -6 3 7 2 16 -1 19 -3 4 -6 -2 -5 -13z"/>
<path d="M4311 3193 c-1 -6 8 -49 18 -95 21 -91 56 -285 66 -363 8 -55 18 -47
29 22 5 33 -3 75 -33 185 -47 167 -79 268 -80 251z"/>
<path d="M5061 3185 c0 -13 38 -59 44 -54 2 3 -7 18 -20 34 -13 17 -24 26 -24
20z"/>
<path d="M3200 3140 c-14 -11 -21 -20 -17 -20 5 0 20 9 34 20 14 11 22 20 17
20 -5 0 -20 -9 -34 -20z"/>
<path d="M2222 3130 c-22 -36 -13 -66 39 -134 28 -36 53 -66 55 -66 2 0 -6 21
-17 48 -12 26 -31 75 -43 110 -19 56 -22 60 -34 42z"/>
<path d="M4482 3093 c10 -37 49 -95 121 -178 28 -32 34 -47 31 -72 -4 -28 6
-44 70 -120 84 -100 293 -310 300 -302 6 6 36 118 36 134 0 15 -53 70 -155
160 -149 132 -243 225 -323 323 -42 50 -79 92 -83 92 -4 0 -3 -17 3 -37z"/>
<path d="M3390 3049 c-35 -14 -88 -67 -111 -111 -24 -47 -24 -51 2 -37 15 8
24 8 32 0 6 -6 19 -11 29 -11 10 0 18 -4 18 -8 0 -12 -57 -52 -75 -52 -8 0
-15 -6 -15 -14 0 -32 46 -131 76 -163 29 -31 35 -33 53 -21 12 7 21 18 21 24
0 15 28 26 35 14 11 -19 41 -10 70 20 20 21 32 27 41 20 8 -8 13 -6 18 5 4 10
15 15 33 13 28 -3 28 -2 31 61 8 173 -129 311 -258 260z m164 -138 c3 -4 3
-11 0 -14 -8 -8 -34 3 -34 14 0 11 27 12 34 0z m-184 -105 c0 -2 -7 -7 -16
-10 -8 -3 -12 -2 -9 4 6 10 25 14 25 6z m154 -91 c-4 -8 -9 -15 -13 -16 -3 0
-18 -2 -33 -4 -16 -2 -28 0 -28 5 0 8 44 28 67 29 7 1 10 -6 7 -14z"/>
<path d="M4168 3002 c57 -17 119 -93 143 -177 20 -67 -42 -246 -124 -359 -36
-50 -41 -70 -12 -46 27 22 91 124 113 180 65 165 53 271 -41 368 -31 32 -48
42 -72 41 -26 -1 -27 -2 -7 -7z"/>
<path d="M4113 2978 c-19 -23 -44 -78 -36 -78 9 0 55 81 49 87 -2 2 -8 -2 -13
-9z"/>
<path d="M4488 2950 c-26 -115 -27 -138 -8 -211 29 -112 68 -342 78 -455 l9
-100 93 -142 93 -141 43 67 c24 37 44 72 44 78 0 6 -17 49 -38 95 -65 142 -65
149 1 56 29 -40 52 -63 64 -63 28 0 18 31 -27 86 -51 61 -240 359 -240 377 0
4 14 -12 32 -35 17 -23 33 -40 35 -38 2 2 -17 48 -42 102 -62 131 -117 271
-125 314 -6 32 -7 33 -12 10z"/>
<path d="M1182 2885 c0 -16 2 -22 5 -12 2 9 2 23 0 30 -3 6 -5 -1 -5 -18z"/>
<path d="M4183 2892 c23 -26 21 -36 -14 -77 -17 -19 -26 -35 -21 -35 6 0 24
16 41 37 l30 36 15 -34 c13 -32 14 -32 15 -9 1 26 -20 66 -47 88 -24 19 -37
14 -19 -6z"/>
<path d="M4115 2863 c-24 -36 -36 -111 -16 -99 5 3 7 15 4 26 -3 11 6 39 21
65 32 54 27 60 -9 8z"/>
<path d="M1151 2802 l1 -57 13 35 c18 47 18 67 0 74 -12 4 -15 -5 -14 -52z"/>
<path d="M2341 2796 c11 -9 90 -16 84 -6 -3 5 -25 10 -47 10 -23 0 -39 -2 -37
-4z"/>
<path d="M2460 2782 c0 -10 49 -42 85 -56 18 -6 18 -5 5 7 -26 24 -90 59 -90
49z"/>
<path d="M4143 2731 c-22 -14 -33 -16 -36 -8 -9 25 -12 0 -7 -53 5 -49 7 -52
13 -25 14 54 31 78 67 91 23 8 28 13 15 13 -11 1 -34 -8 -52 -18z"/>
<path d="M4421 2681 c-10 -45 -11 -93 -3 -212 16 -253 9 -459 -22 -664 -30
-204 -42 -248 -98 -359 -27 -55 -33 -74 -19 -62 10 9 36 56 57 104 45 104 56
117 115 147 l46 24 12 83 c7 46 15 149 18 229 l6 147 -38 88 c-28 63 -40 106
-42 149 l-3 60 31 -64 c16 -35 32 -61 35 -59 12 12 -62 448 -76 448 -3 0 -12
-26 -19 -59z"/>
<path d="M3750 2710 c0 -5 5 -10 11 -10 5 0 7 5 4 10 -3 6 -8 10 -11 10 -2 0
-4 -4 -4 -10z"/>
<path d="M3579 2654 c-15 -32 -15 -33 2 -23 26 13 42 46 26 52 -6 2 -19 -11
-28 -29z"/>
<path d="M4211 2662 c-8 -18 -31 -58 -53 -88 -42 -60 -43 -87 -2 -39 31 37 77
131 72 147 -2 6 -10 -3 -17 -20z"/>
<path d="M3725 2670 c3 -5 11 -10 16 -10 6 0 7 5 4 10 -3 6 -11 10 -16 10 -6
0 -7 -4 -4 -10z"/>
<path d="M3700 2630 c0 -5 5 -10 10 -10 6 0 10 5 10 10 0 6 -4 10 -10 10 -5 0
-10 -4 -10 -10z"/>
<path d="M1102 2595 c0 -16 2 -22 5 -12 2 9 2 23 0 30 -3 6 -5 -1 -5 -18z"/>
<path d="M3660 2610 c0 -5 5 -10 11 -10 5 0 7 5 4 10 -3 6 -8 10 -11 10 -2 0
-4 -4 -4 -10z"/>
<path d="M3420 2602 c0 -5 18 -16 39 -24 37 -15 41 -15 57 3 17 19 17 20 -23
13 -26 -4 -43 -2 -47 5 -8 13 -26 15 -26 3z"/>
<path d="M1237 2330 c-9 -30 -35 -125 -58 -211 l-42 -157 23 -32 c19 -26 25
-29 31 -17 28 48 83 397 71 442 -9 30 -9 29 -25 -25z"/>
<path d="M1147 2223 c-4 -3 -7 -11 -7 -17 0 -6 5 -5 12 2 6 6 9 14 7 17 -3 3
-9 2 -12 -2z"/>
<path d="M2326 2155 c-3 -8 -1 -15 4 -15 6 0 10 7 10 15 0 8 -2 15 -4 15 -2 0
-6 -7 -10 -15z"/>
<path d="M2362 2140 c-8 -13 -8 -20 -2 -20 6 0 13 7 17 15 9 24 -1 27 -15 5z"/>
<path d="M2412 2138 c-14 -14 -16 -28 -3 -28 9 0 24 30 18 36 -2 2 -9 -2 -15
-8z"/>
<path d="M2450 2140 c0 -5 5 -10 10 -10 6 0 10 5 10 10 0 6 -4 10 -10 10 -5 0
-10 -4 -10 -10z"/>
<path d="M4164 2052 c-2 -159 -79 -465 -148 -588 -21 -37 -24 -49 -14 -56 7
-4 17 -8 21 -8 8 0 121 66 163 96 l22 15 -13 -60 c-10 -47 -23 -72 -61 -118
l-48 -58 48 45 c44 42 47 43 36 16 -6 -16 -9 -31 -6 -33 7 -7 36 28 36 43 0 9
5 12 11 8 7 -4 9 0 5 12 -3 11 -1 33 4 49 l10 30 -5 -32 c-2 -18 -3 -33 0 -33
15 0 104 344 92 356 -3 3 -8 -11 -11 -31 -15 -79 -24 -26 -20 118 l4 152 -25
-119 c-13 -65 -26 -120 -28 -123 -3 -2 -8 29 -12 70 -10 117 -41 311 -51 329
-6 11 -10 -16 -10 -80z m83 -429 c-2 -21 -4 -6 -4 32 0 39 2 55 4 38 2 -18 2
-50 0 -70z m-10 -150 c-3 -10 -5 -2 -5 17 0 19 2 27 5 18 2 -10 2 -26 0 -35z"/>
<path d="M3173 2116 c-104 -26 -263 -131 -263 -175 0 -28 53 -103 104 -148 54
-48 138 -83 194 -82 31 0 27 3 -26 14 -80 18 -150 57 -158 91 -8 32 4 121 22
159 10 22 12 23 8 6 -7 -28 -7 -28 85 24 39 22 71 46 71 53 0 6 11 12 25 12
14 0 35 10 47 22 18 18 33 22 78 21 37 -1 49 2 35 7 -30 13 -163 10 -222 -4z
m74 -12 c-3 -3 -12 -4 -19 -1 -8 3 -5 6 6 6 11 1 17 -2 13 -5z"/>
<path d="M1351 2030 c-6 -219 5 -360 30 -375 12 -8 11 31 -2 78 -6 22 -14 118
-18 215 -6 144 -8 159 -10 82z"/>
<path d="M3440 2075 c6 -15 10 -56 10 -91 0 -102 -54 -194 -146 -251 -17 -10
-17 -11 5 -6 14 4 48 29 77 57 55 54 84 121 84 195 0 43 -17 108 -30 116 -6 4
-6 -4 0 -20z"/>
<path d="M4562 2058 c11 -27 -13 -332 -27 -362 l-15 -28 38 6 c39 7 54 21 127
119 l44 58 -75 107 c-68 97 -107 139 -92 100z"/>
<path d="M4321 1774 c0 -11 3 -14 6 -6 3 7 2 16 -1 19 -3 4 -6 -2 -5 -13z"/>
<path d="M1470 1566 c0 -7 7 -19 15 -26 16 -13 20 -3 9 24 -8 20 -24 21 -24 2z"/>
</g>
</svg>
