<?xml version="1.0" standalone="no"?>
<!DOCTYPE svg PUBLIC "-//W3C//DTD SVG 20010904//EN"
 "http://www.w3.org/TR/2001/REC-SVG-20010904/DTD/svg10.dtd">
<svg version="1.0" xmlns="http://www.w3.org/2000/svg"
 width="552.000000pt" height="291.000000pt" viewBox="0 0 552.000000 291.000000"
 preserveAspectRatio="xMidYMid meet">

<g transform="translate(0.000000,291.000000) scale(0.100000,-0.100000)"
fill="#000000" stroke="none">
<path d="M1559 2580 c-83 -10 -214 -41 -273 -65 -84 -35 -164 -75 -214 -107
l-52 -34 35 -34 c33 -32 48 -80 25 -80 -5 0 -10 -6 -10 -14 0 -9 -8 -12 -24
-9 -16 3 -29 -3 -44 -21 -11 -14 -39 -33 -63 -41 -24 -9 -54 -26 -67 -38 -13
-12 -24 -21 -25 -19 -6 12 -99 -24 -108 -41 -11 -19 -9 -19 37 -13 33 4 43 3
29 -3 -11 -5 -34 -10 -52 -10 -37 -1 -54 -24 -108 -150 -74 -174 -104 -369
-85 -557 6 -57 14 -114 19 -126 7 -20 9 -19 31 17 12 20 36 69 51 109 33 84
37 79 9 -14 -11 -37 -33 -86 -50 -108 -16 -23 -30 -50 -29 -59 0 -15 2 -14 16
4 8 13 24 23 34 23 21 0 30 -18 48 -95 17 -69 29 -77 23 -14 -4 41 -2 51 9 47
9 -3 13 -16 11 -34 l-2 -29 25 28 c23 26 25 36 25 123 0 102 25 246 66 374 13
41 22 76 20 78 -3 2 -7 -7 -11 -20 -4 -13 -20 -50 -35 -83 -29 -63 -40 -99
-61 -200 -9 -48 -13 -56 -21 -40 -7 16 -7 15 -3 -7 3 -15 -2 -44 -10 -65 -8
-21 -19 -65 -23 -98 l-8 -60 -7 76 c-8 80 5 223 28 311 12 49 12 49 -9 33 -49
-36 -62 -43 -86 -50 -23 -6 -22 -5 5 13 57 37 100 94 151 202 47 99 82 174
108 233 14 32 38 77 54 100 47 71 46 74 -8 17 -124 -131 -234 -295 -249 -373
l-9 -42 -1 35 c-3 101 171 328 382 500 80 65 127 94 205 126 31 13 50 24 42
24 -8 0 -39 -11 -69 -25 -30 -14 -56 -24 -58 -21 -8 7 77 68 135 96 l57 28
-46 7 c-25 4 -79 10 -120 15 l-74 7 55 3 c94 6 194 -2 229 -16 19 -8 36 -12
39 -9 3 3 -1 5 -8 5 -9 0 -10 3 -4 9 14 13 94 30 196 42 207 23 187 18 209 60
11 22 26 39 34 39 8 0 26 -21 39 -47 31 -59 51 -87 42 -59 -5 16 -4 17 8 7 8
-7 23 -11 33 -8 16 4 15 6 -4 12 -28 9 -29 34 -3 68 l21 26 -39 10 c-115 31
-292 44 -413 31z m-702 -506 c-3 -3 -12 -4 -19 -1 -8 3 -5 6 6 6 11 1 17 -2
13 -5z"/>
<path d="M2040 2480 c-17 -6 -11 -7 22 -3 25 3 54 1 63 -4 15 -9 14 -12 -11
-32 -15 -12 -25 -23 -22 -26 2 -3 22 11 44 30 21 19 32 32 23 29 -10 -3 -20
-1 -24 5 -7 13 -59 13 -95 1z"/>
<path d="M2170 2453 c-14 -10 -34 -25 -44 -35 -11 -10 -24 -18 -29 -18 -5 0 6
-18 24 -41 29 -36 30 -43 19 -64 -9 -17 -10 -28 -3 -37 6 -7 13 -22 16 -33 3
-14 5 -10 6 11 1 35 25 51 48 33 7 -7 16 -9 20 -6 3 4 15 2 27 -4 19 -9 19 -9
4 4 -10 8 -18 22 -18 32 0 17 3 16 25 -5 13 -12 48 -38 77 -56 58 -36 275
-154 283 -154 3 0 -11 22 -30 49 -33 46 -40 51 -103 65 -59 13 -142 42 -142
49 0 1 30 2 68 2 52 0 66 -3 64 -14 -3 -15 15 -31 36 -31 30 0 -26 50 -73 66
-72 24 -135 53 -135 63 0 4 -15 12 -32 17 -31 9 -33 13 -38 59 -4 46 -5 43
-10 -30 -5 -73 -7 -80 -25 -77 -11 2 -28 12 -37 23 -16 19 -16 24 -2 57 8 20
22 44 31 54 24 27 4 42 -27 21z"/>
<path d="M2020 2402 c6 -13 18 -26 26 -29 8 -3 14 -13 14 -23 0 -10 13 -25 28
-32 l28 -14 -15 33 c-8 18 -24 36 -36 39 -11 3 -28 16 -38 28 l-18 21 11 -23z"/>
<path d="M1788 2375 c-3 -14 -1 -25 3 -25 5 0 9 11 9 25 0 14 -2 25 -4 25 -2
0 -6 -11 -8 -25z"/>
<path d="M1930 2390 c-9 -6 -10 -10 -3 -10 6 0 15 5 18 10 8 12 4 12 -15 0z"/>
<path d="M1475 2360 c11 -14 21 -26 21 -28 1 -2 17 4 34 13 18 9 71 20 119 25
80 7 82 7 26 9 -34 0 -87 -6 -119 -14 -55 -14 -60 -14 -80 2 l-21 18 20 -25z"/>
<path d="M1860 2368 c-19 -5 -39 -13 -44 -18 -5 -5 13 -2 39 6 27 8 51 16 53
19 7 7 -7 5 -48 -7z"/>
<path d="M1378 2363 c7 -3 16 -2 19 1 4 3 -2 6 -13 5 -11 0 -14 -3 -6 -6z"/>
<path d="M1748 2363 c7 -3 16 -2 19 1 4 3 -2 6 -13 5 -11 0 -14 -3 -6 -6z"/>
<path d="M1999 2365 c-1 -3 -2 -10 -3 -17 0 -6 -7 -13 -15 -16 -9 -3 -11 0 -6
9 5 8 4 11 -1 6 -5 -5 -9 -14 -9 -19 0 -6 -6 -13 -14 -16 -9 -3 -11 0 -6 9 5
8 4 11 -1 6 -5 -5 -9 -14 -9 -20 0 -7 -8 -11 -18 -11 -9 1 -15 -2 -12 -6 6
-10 -7 -20 -37 -25 -30 -6 -41 -27 -22 -42 9 -6 57 -21 107 -33 51 -12 96 -25
102 -28 13 -8 67 -3 78 8 8 7 -18 70 -29 70 -2 0 0 -9 6 -20 6 -11 7 -20 2
-20 -5 0 -25 33 -46 73 -20 39 -30 63 -22 52 51 -68 54 -65 9 8 -20 31 -50 49
-54 32z m28 -11 c-3 -3 -12 -4 -19 -1 -8 3 -5 6 6 6 11 1 17 -2 13 -5z"/>
<path d="M1434 2343 c4 -7 -10 -13 -42 -18 -64 -8 -88 -24 -28 -18 39 5 51 2
70 -17 l24 -22 7 22 c5 16 1 28 -15 44 -13 11 -20 16 -16 9z"/>
<path d="M2333 2323 c9 -2 23 -2 30 0 6 3 -1 5 -18 5 -16 0 -22 -2 -12 -5z"/>
<path d="M2394 2305 c27 -21 53 -20 36 0 -7 8 -22 15 -34 15 -21 -1 -21 -1 -2
-15z"/>
<path d="M1616 2251 c-3 -5 8 -14 24 -21 17 -7 30 -16 30 -20 0 -5 15 -14 34
-20 19 -6 67 -41 107 -78 40 -37 67 -57 61 -46 -6 12 -25 33 -42 47 -16 14
-30 30 -30 36 0 12 -75 74 -117 95 -36 18 -59 20 -67 7z"/>
<path d="M2299 2216 c12 -17 21 -44 21 -66 0 -24 7 -43 20 -55 11 -10 24 -32
29 -49 7 -24 9 -26 10 -9 1 12 -10 35 -24 51 -16 20 -25 42 -25 65 0 25 -8 45
-26 64 l-26 28 21 -29z"/>
<path d="M1455 2223 c18 -4 77 -28 98 -40 4 -2 7 -2 7 1 0 11 -80 46 -102 45
-20 -1 -21 -2 -3 -6z"/>
<path d="M2334 2208 c9 -13 32 -45 50 -73 42 -62 71 -87 117 -103 32 -11 170
-33 176 -28 2 1 -4 12 -12 24 -9 11 -66 45 -128 75 -61 30 -136 71 -166 91
-42 29 -50 32 -37 14z"/>
<path d="M1304 2171 c-30 -18 -72 -67 -88 -101 -4 -8 1 -4 11 10 37 52 73 82
90 75 10 -3 14 -3 10 1 -4 4 1 13 11 20 26 20 1 16 -34 -5z"/>
<path d="M2204 2119 c4 -24 10 -55 13 -68 4 -18 3 -22 -7 -16 -9 6 -11 4 -5
-4 12 -20 22 0 30 56 6 47 5 53 -16 63 -21 12 -22 11 -15 -31z"/>
<path d="M1646 2109 c28 -30 78 -118 71 -125 -1 -2 -40 31 -85 73 l-83 76 29
-49 c16 -27 55 -102 87 -166 32 -65 61 -116 63 -113 6 6 62 -27 62 -37 0 -4 4
-8 10 -8 5 0 37 -13 69 -29 l60 -29 -16 42 c-35 89 -192 312 -263 370 l-35 30
31 -35z m121 -228 c8 -18 13 -35 11 -36 -7 -7 -97 109 -91 118 8 13 63 -43 80
-82z"/>
<path d="M2110 2127 c0 -2 15 -16 33 -33 l32 -29 -29 33 c-28 30 -36 37 -36
29z"/>
<path d="M1511 2105 c1 -19 18 -51 18 -35 0 8 -4 22 -9 30 -5 8 -9 11 -9 5z"/>
<path d="M2287 2048 c-8 -28 -5 -31 17 -15 16 11 16 15 3 25 -12 10 -16 8 -20
-10z"/>
<path d="M1541 2004 c0 -11 3 -14 6 -6 3 7 2 16 -1 19 -3 4 -6 -2 -5 -13z"/>
<path d="M2206 1974 c11 -16 25 -41 32 -57 6 -15 23 -32 37 -37 24 -9 35 -30
16 -30 -10 0 24 -101 84 -245 21 -49 41 -101 46 -115 5 -14 18 -50 29 -80 l21
-55 -6 65 c-4 36 -8 76 -9 90 -3 33 -33 122 -62 184 -12 27 -20 55 -17 62 3 8
1 14 -4 14 -6 0 -15 12 -22 27 -14 30 -135 188 -153 199 -7 4 -3 -6 8 -22z"/>
<path d="M1555 1951 c11 -69 46 -172 57 -165 6 4 8 -1 5 -12 -3 -11 1 -32 9
-49 14 -30 14 -23 -1 24 -4 14 -3 21 2 18 9 -6 -45 152 -68 198 -7 16 -8 13
-4 -14z"/>
<path d="M2381 1955 c0 -5 6 -21 14 -35 8 -14 14 -20 14 -15 0 6 -6 21 -14 35
-8 14 -14 21 -14 15z"/>
<path d="M2316 1943 c-11 -11 -7 -20 9 -20 8 0 15 4 15 8 0 11 -16 20 -24 12z"/>
<path d="M1246 1846 c-5 -49 -6 -138 -4 -197 5 -102 4 -109 -16 -124 l-21 -16
23 11 c19 9 22 8 23 -12 4 -85 6 -105 15 -121 11 -19 10 121 -4 393 l-8 155
-8 -89z"/>
<path d="M1959 1915 c17 -33 31 -51 31 -40 0 6 -10 21 -21 35 -13 17 -17 18
-10 5z"/>
<path d="M922 1900 c-7 -12 -11 -49 -11 -92 l2 -73 8 70 c4 39 10 80 14 93 9
27 4 28 -13 2z"/>
<path d="M2381 1863 c-10 -26 -10 -27 4 -9 8 11 15 23 15 28 0 15 -7 8 -19
-19z"/>
<path d="M2580 1841 c0 -6 4 -13 10 -16 6 -3 7 1 4 9 -7 18 -14 21 -14 7z"/>
<path d="M2016 1817 c3 -10 9 -15 12 -12 3 3 0 11 -7 18 -10 9 -11 8 -5 -6z"/>
<path d="M2371 1814 c0 -11 3 -14 6 -6 3 7 2 16 -1 19 -3 4 -6 -2 -5 -13z"/>
<path d="M2606 1797 c3 -10 9 -15 12 -12 3 3 0 11 -7 18 -10 9 -11 8 -5 -6z"/>
<path d="M1749 1755 c11 -22 27 -49 36 -60 15 -19 15 -18 0 13 -9 18 -13 37
-10 43 4 5 2 8 -4 7 -5 -2 -17 6 -26 17 -11 14 -10 9 4 -20z"/>
<path d="M1928 1783 c12 -2 30 -2 40 0 9 3 -1 5 -23 4 -22 0 -30 -2 -17 -4z"/>
<path d="M2034 1780 c29 -93 51 -150 58 -150 10 0 11 -3 -10 55 -17 46 -59
129 -48 95z"/>
<path d="M1648 1734 c25 -47 133 -134 213 -173 83 -41 147 -58 78 -21 -20 10
-50 35 -67 54 -17 20 -35 36 -39 36 -4 0 6 -13 22 -30 48 -50 11 -34 -40 18
-38 37 -43 40 -26 15 38 -56 5 -37 -75 43 -42 42 -71 68 -66 58z"/>
<path d="M1396 1615 c2 -99 19 -213 30 -202 2 2 -1 30 -7 61 -6 32 -9 59 -7
61 2 2 21 -18 43 -43 22 -25 34 -43 28 -39 -8 5 -13 3 -13 -5 0 -12 61 -58 76
-58 4 0 -1 9 -11 20 -10 11 -15 23 -12 26 3 4 -8 27 -26 53 -17 25 -41 73 -54
106 -12 33 -22 54 -22 48 -1 -7 -5 -13 -10 -13 -6 0 -12 21 -14 48 -2 26 -3
-2 -1 -63z"/>
<path d="M2027 1615 c2 -49 0 -96 -5 -104 -7 -9 -28 -13 -64 -12 -56 1 -133
-26 -126 -45 2 -5 -7 -10 -18 -12 -22 -3 -75 52 -103 106 -7 13 -15 21 -18 18
-3 -3 11 -30 32 -61 61 -92 14 -102 -78 -16 l-50 46 8 -35 c4 -19 13 -40 21
-46 7 -6 12 -13 9 -15 -2 -3 4 -6 13 -7 71 -8 101 -15 97 -22 -2 -4 7 -5 22
-2 20 4 24 2 18 -9 -9 -13 -18 -69 -11 -69 2 0 15 18 30 40 27 42 55 63 96 75
23 7 22 6 -8 -20 -38 -32 -63 -71 -40 -62 8 3 21 1 29 -3 11 -7 9 -13 -9 -28
-26 -23 -23 -51 8 -92 15 -20 21 -23 31 -12 7 6 22 12 34 12 12 0 27 6 34 13
12 12 16 14 51 16 46 3 13 127 -43 161 -46 28 6 31 80 4 46 -17 59 -44 48
-104 -5 -28 -4 -31 9 -21 8 7 18 27 23 44 l7 32 7 -45 c6 -36 6 -30 4 25 -1
39 -5 77 -8 85 -3 8 -8 22 -10 30 -4 12 -6 12 -6 -2 -1 -14 -6 -15 -37 -5 -36
11 -36 12 -20 62 4 11 -1 5 -10 -12 -18 -34 -28 -40 -39 -23 -3 6 -2 10 4 10
12 0 7 135 -7 170 -7 18 -8 0 -5 -65z m-233 -183 c3 -5 -1 -9 -9 -9 -8 0 -15
4 -15 9 0 4 4 8 9 8 6 0 12 -4 15 -8z m182 -169 c-10 -11 -37 -12 -30 -2 3 5
12 9 21 9 9 0 13 -3 9 -7z"/>
<path d="M991 1671 c-8 -5 -9 -11 -3 -15 5 -3 12 1 16 9 6 17 6 18 -13 6z"/>
<path d="M1045 1661 c-3 -5 -1 -12 5 -16 5 -3 10 1 10 9 0 18 -6 21 -15 7z"/>
<path d="M1956 1635 c3 -17 13 -45 20 -64 8 -18 11 -38 7 -45 -4 -8 -3 -8 5
-1 9 8 7 26 -9 70 -23 67 -34 86 -23 40z"/>
<path d="M1098 1510 c-2 -72 0 -137 3 -143 4 -7 9 -38 13 -70 l6 -57 -21 21
c-15 15 -22 34 -22 58 1 36 1 36 -8 7 -4 -16 -6 -33 -3 -38 3 -4 7 -16 9 -25
2 -10 14 -55 28 -100 13 -46 23 -83 21 -83 -2 0 -14 19 -28 43 -47 80 -86 191
-98 280 -17 127 -32 87 -24 -62 7 -114 11 -141 41 -270 9 -35 13 -66 10 -69
-15 -16 -48 114 -83 328 l-9 55 -2 -48 c-2 -72 27 -231 60 -331 16 -49 27 -91
25 -93 -8 -8 -57 126 -78 212 -18 76 -21 119 -21 273 0 101 -3 179 -7 175 -16
-18 -30 -135 -30 -254 0 -142 21 -274 64 -403 15 -43 24 -81 22 -84 -3 -3 -9
4 -13 14 -3 10 -11 22 -17 26 -6 4 -12 15 -12 25 -1 10 -13 53 -28 95 -14 42
-26 84 -26 93 0 37 -16 3 -18 -37 -1 -34 1 -39 9 -23 8 18 9 17 4 -5 -2 -14
-5 -32 -5 -40 -1 -24 -28 60 -39 124 -6 33 -11 81 -11 108 0 29 -4 48 -11 48
-9 0 -10 -25 -5 -87 4 -49 7 -95 8 -103 1 -21 53 -135 76 -168 16 -22 20 -44
19 -117 0 -78 3 -97 26 -141 22 -44 91 -114 111 -114 4 0 17 -9 29 -21 30 -28
206 -112 292 -138 59 -18 77 -20 115 -11 28 6 73 7 120 2 96 -11 149 -6 180
19 14 11 43 33 65 50 l40 31 3 -31 c2 -16 -2 -40 -9 -53 -11 -21 -11 -22 4 -9
10 7 17 25 17 40 0 21 5 27 26 29 17 1 24 -2 21 -11 -2 -6 -10 -11 -16 -9 -7
1 -10 -2 -6 -8 6 -10 54 -8 73 4 6 4 9 13 5 21 -3 10 5 20 27 29 29 12 30 14
11 19 -12 3 -19 1 -16 -3 7 -11 -43 -6 -53 5 -4 4 -1 5 7 0 9 -5 12 -4 7 3
-12 19 -26 14 -27 -10 -1 -22 -1 -22 -9 2 -8 24 -8 24 -9 3 -1 -24 -29 -32
-35 -10 -4 17 -22 68 -31 91 -6 14 -4 17 11 14 20 -4 46 17 170 135 39 37 73
65 76 62 2 -3 15 6 28 20 13 14 18 25 12 25 -6 0 -16 -8 -21 -17 -6 -10 -10
-13 -10 -8 0 6 11 24 24 40 l25 30 0 -38 c0 -35 2 -37 15 -23 24 24 42 74 59
165 19 98 18 94 7 87 -5 -4 -12 0 -14 6 -3 7 -6 3 -6 -9 -3 -72 -86 -213 -192
-325 -88 -93 -150 -138 -189 -138 -58 0 -331 59 -373 81 -42 21 -80 62 -140
147 -22 31 -51 69 -65 84 -14 15 -23 31 -19 34 3 3 -8 24 -24 47 -16 22 -29
49 -29 61 0 24 16 11 23 -19 4 -17 5 -17 6 3 l1 24 31 -27 c17 -14 34 -23 38
-20 3 4 -4 14 -16 23 -31 24 -42 60 -31 102 12 46 71 100 110 100 l30 0 -31
-26 c-37 -30 -40 -51 -8 -50 29 1 29 -28 0 -32 l-23 -3 20 -39 c25 -49 58 -80
77 -73 12 5 12 7 1 14 -9 6 -7 9 10 9 12 0 30 8 40 18 10 10 24 16 30 14 7 -2
12 1 12 7 0 19 -33 95 -49 115 -15 18 -15 19 3 12 19 -7 19 -6 2 13 -10 11
-27 23 -37 26 -11 4 -17 11 -14 16 4 5 -19 9 -53 9 -64 0 -65 1 -87 78 -4 13
-9 21 -12 18 -3 -3 2 -26 10 -51 l16 -46 -27 3 c-20 2 -33 14 -50 46 -28 50
-42 50 -17 0 25 -48 45 -67 63 -61 8 4 -3 -11 -25 -32 -26 -24 -39 -44 -35
-53 3 -9 1 -13 -5 -9 -7 5 -9 0 -6 -12 3 -10 0 -22 -5 -25 -6 -3 -8 -16 -6
-29 2 -12 -3 -3 -11 21 -8 24 -19 89 -25 145 -6 56 -18 142 -27 191 -8 49 -17
111 -19 139 -7 90 -13 61 -16 -73z m392 -450 c0 -5 -7 -10 -16 -10 -8 0 -12 5
-9 10 3 6 10 10 16 10 5 0 9 -4 9 -10z m-182 -224 c39 -20 43 -40 4 -23 -40
18 -67 39 -80 64 -19 35 -14 37 16 6 15 -17 42 -38 60 -47z"/>
<path d="M1132 1570 c0 -14 2 -19 5 -12 2 6 2 18 0 25 -3 6 -5 1 -5 -13z"/>
<path d="M2121 1554 c0 -11 3 -14 6 -6 3 7 2 16 -1 19 -3 4 -6 -2 -5 -13z"/>
<path d="M2212 1530 c0 -14 2 -19 5 -12 2 6 2 18 0 25 -3 6 -5 1 -5 -13z"/>
<path d="M1141 1524 c0 -12 4 -36 10 -55 6 -19 13 -40 15 -48 3 -8 7 -12 9 -9
3 3 1 16 -4 29 -7 19 -4 29 12 47 11 12 15 22 9 22 -6 0 -14 -4 -17 -10 -11
-18 -24 -10 -28 18 -3 19 -4 21 -6 6z"/>
<path d="M2131 1514 c0 -11 3 -14 6 -6 3 7 2 16 -1 19 -3 4 -6 -2 -5 -13z"/>
<path d="M2225 1450 c3 -30 5 -95 6 -145 1 -55 4 -80 8 -65 7 22 8 19 14 -20
4 -25 3 -62 -2 -82 -10 -41 -3 -49 16 -19 16 26 0 206 -27 311 l-20 75 5 -55z"/>
<path d="M1290 1463 c0 -10 10 -29 21 -43 15 -18 19 -20 15 -7 -3 11 -9 30
-12 43 -7 28 -24 32 -24 7z"/>
<path d="M1326 1460 c9 -34 57 -113 67 -110 5 1 23 -11 40 -27 30 -26 30 -26
-3 11 -55 62 -61 69 -87 111 -17 28 -22 33 -17 15z"/>
<path d="M2490 1463 c0 -9 18 -38 40 -64 22 -26 40 -57 40 -68 0 -28 184 -230
197 -217 2 2 6 19 9 38 6 32 2 39 -47 85 -30 28 -69 63 -88 79 -18 15 -60 58
-92 96 -36 41 -59 62 -59 51z"/>
<path d="M2411 1459 c0 -8 8 -57 18 -109 12 -69 19 -88 24 -71 3 14 -3 60 -15
105 -20 80 -28 103 -27 75z"/>
<path d="M1564 1402 c28 -31 76 -52 125 -58 25 -3 25 -2 -43 71 -5 6 0 -7 12
-27 l21 -37 -27 12 c-15 6 -47 24 -72 41 l-45 29 29 -31z"/>
<path d="M1431 1389 c-1 -8 6 -24 15 -35 15 -19 15 -19 6 1 -5 11 -12 27 -15
35 -5 13 -6 13 -6 -1z"/>
<path d="M2487 1362 c-5 -29 -1 -75 12 -140 10 -53 22 -126 26 -162 8 -67 35
-129 84 -189 l28 -34 21 37 22 37 -26 50 c-29 59 -26 74 6 30 20 -29 40 -40
40 -23 0 4 -11 21 -25 37 -14 17 -48 66 -75 109 -36 57 -47 83 -39 92 6 8 6
14 0 18 -10 6 -57 126 -63 161 -2 12 -7 2 -11 -23z"/>
<path d="M2335 1350 c21 -24 26 -25 19 -6 -3 8 -13 17 -22 21 -13 5 -13 2 3
-15z"/>
<path d="M2386 1357 c3 -10 9 -15 12 -12 3 3 0 11 -7 18 -10 9 -11 8 -5 -6z"/>
<path d="M1467 1310 c3 -11 9 -20 15 -20 5 0 4 9 -2 20 -6 11 -12 20 -14 20
-2 0 -2 -9 1 -20z"/>
<path d="M2319 1313 c-13 -16 -12 -17 4 -4 9 7 17 15 17 17 0 8 -8 3 -21 -13z"/>
<path d="M2401 1309 c-1 -14 -7 -47 -15 -72 -8 -26 -10 -45 -6 -42 12 7 34
109 27 126 -3 8 -6 2 -6 -12z"/>
<path d="M1420 1296 c0 -3 9 -10 20 -16 11 -6 20 -8 20 -6 0 3 -9 10 -20 16
-11 6 -20 8 -20 6z"/>
<path d="M2300 1265 c-6 -8 -10 -20 -7 -27 4 -8 6 -7 6 4 1 9 9 22 19 27 9 6
12 11 6 11 -6 0 -17 -7 -24 -15z"/>
<path d="M2458 1257 c-3 -15 -3 -100 -1 -189 3 -95 1 -192 -6 -233 -16 -100
-28 -167 -36 -190 -3 -11 1 -8 10 7 8 15 28 34 44 42 24 13 29 23 34 68 13
102 8 191 -13 246 -11 29 -20 62 -20 75 1 19 4 17 20 -13 l19 -35 -4 30 c-18
120 -29 183 -35 199 -6 18 -8 17 -12 -7z"/>
<path d="M2016 1233 c-6 -14 -5 -15 5 -6 7 7 10 15 7 18 -3 3 -9 -2 -12 -12z"/>
<path d="M2172 1210 c-3 -53 -19 -169 -28 -196 -5 -15 -4 -16 5 -4 16 23 33
140 29 195 l-4 50 -2 -45z"/>
<path d="M2321 1198 c-12 -22 -18 -37 -12 -34 12 8 44 66 39 71 -2 2 -14 -15
-27 -37z"/>
<path d="M1930 1204 c0 -9 40 -23 44 -15 3 5 -5 11 -19 13 -14 3 -25 4 -25 2z"/>
<path d="M2221 1164 c0 -11 3 -14 6 -6 3 7 2 16 -1 19 -3 4 -6 -2 -5 -13z"/>
<path d="M2335 1138 c-16 -24 -22 -38 -14 -31 15 12 53 73 46 73 -2 0 -17 -19
-32 -42z"/>
<path d="M2202 1093 c-15 -48 -8 -55 8 -8 7 20 10 38 8 41 -3 2 -10 -13 -16
-33z"/>
<path d="M2291 1074 c-3 -111 -46 -251 -88 -284 -22 -17 -24 -24 -21 -93 2
-41 7 -72 12 -70 5 3 7 0 5 -6 -3 -7 -9 -13 -14 -13 -14 0 -99 -80 -101 -95
-3 -18 82 44 101 74 9 13 20 21 24 18 22 -13 86 226 95 360 4 44 2 96 -3 115
l-9 35 -1 -41z m-121 -488 c0 -2 -8 -10 -17 -17 -16 -13 -17 -12 -4 4 13 16
21 21 21 13z"/>
<path d="M747 968 c-19 -75 -24 -115 -17 -122 5 -5 13 -6 17 -2 12 11 42 209
34 223 -4 7 -19 -37 -34 -99z"/>
<path d="M2160 1000 c-6 -11 -16 -18 -22 -14 -6 4 -9 1 -6 -7 2 -7 -7 -24 -21
-37 -23 -20 -23 -22 -4 -13 24 12 84 91 69 91 -3 0 -10 -9 -16 -20z"/>
<path d="M1475 1000 l-30 -8 27 -1 c15 0 30 4 33 9 3 6 5 9 3 9 -2 -1 -16 -5
-33 -9z"/>
<path d="M1749 928 c-52 -23 -89 -55 -89 -78 0 -8 12 -30 28 -48 l27 -33 2 50
c1 28 7 58 13 68 11 17 11 17 6 1 -7 -24 3 -23 46 7 20 14 41 25 46 25 5 0 14
6 20 13 18 21 -48 18 -99 -5z"/>
<path d="M2320 911 c0 -62 -39 -230 -66 -283 -13 -26 -24 -50 -24 -53 0 -11
22 -4 60 20 22 14 42 25 46 25 11 0 -7 -54 -24 -74 -9 -11 -11 -16 -4 -12 7 4
12 2 12 -5 0 -8 4 -8 15 1 8 7 12 16 9 22 -3 5 1 19 9 32 15 22 47 119 47 140
0 6 -5 4 -11 -4 -8 -11 -9 -3 -4 32 4 28 2 49 -5 53 -10 6 -13 -15 -12 -95 1
-63 -5 -34 -23 110 -17 130 -25 162 -25 91z m37 -303 c-3 -8 -6 -5 -6 6 -1 11
2 17 5 13 3 -3 4 -12 1 -19z"/>
<path d="M1939 867 c-4 -41 -13 -65 -30 -85 l-24 -27 27 24 c29 25 42 68 36
117 -2 19 -5 9 -9 -29z"/>
<path d="M2532 865 c-2 -30 -7 -77 -11 -105 -5 -32 -4 -50 2 -50 14 0 87 80
87 95 0 10 -46 81 -69 107 -3 4 -8 -17 -9 -47z"/>
<path d="M2381 854 c0 -11 3 -14 6 -6 3 7 2 16 -1 19 -3 4 -6 -2 -5 -13z"/>
<path d="M832 785 c0 -16 4 -43 8 -60 11 -42 11 -1 1 50 -7 34 -9 35 -9 10z"/>
<path d="M1798 733 c6 -2 18 -2 25 0 6 3 1 5 -13 5 -14 0 -19 -2 -12 -5z"/>
</g>
</svg>
